<?xml version="1.0" encoding="UTF-8" standalone="no"?>
<svg width="24px" height="24px" viewBox="0 0 24 24" version="1.1" xmlns="http://www.w3.org/2000/svg" xmlns:xlink="http://www.w3.org/1999/xlink">
    <!-- Generator: Sketch 39.1 (31720) - http://www.bohemiancoding.com/sketch -->
    <title>ic_dribbble_link-mdpi</title>
    <desc>Created with Sketch.</desc>
    <defs></defs>
    <g id="Page-1" stroke="none" stroke-width="1" fill="none" fill-rule="evenodd" stroke-linecap="round" stroke-linejoin="round">
        <g id="ic_dribbble_link-mdpi" stroke="#BDC3C7" stroke-width="1.8">
            <g id="Rectangle-1101-+-Rectangle-1101" transform="translate(12.000000, 11.500000) rotate(-45.000000) translate(-12.000000, -11.500000) translate(3.000000, 8.000000)">
                <path d="M10.5517241,3.9375 C10.5517241,4.75735455 10.2256255,5.5019643 9.69451295,6.05164206 C9.12993247,6.63595765 8.3336862,7 7.45122204,7 L3.1005021,7 C1.38814207,7 -1.7641061e-14,5.62543044 0,3.9375 C1.7641061e-14,2.24612795 1.38788563,0.875 3.1005021,0.875 L4.93705052,0.875" id="Rectangle-1101"></path>
                <path d="M6.81065806,3.93631224 C6.81065806,3.11645769 7.13675671,2.37184794 7.66786925,1.82217017 C8.23244973,1.23785459 9.02869599,0.873812237 9.91116016,0.873812237 L14.2618801,0.873812237 C15.9742401,0.873812237 17.3623822,2.24838179 17.3623822,3.93631224 C17.3623822,5.62768428 15.9744966,6.99881224 14.2618801,6.99881224 L12.4253317,6.99881224" id="Rectangle-1101"></path>
            </g>
        </g>
    </g>
</svg>