<?xml version="1.0" encoding="UTF-8" standalone="no"?>
<svg width="30px" height="30px" viewBox="0 0 30 30" version="1.1" xmlns="http://www.w3.org/2000/svg" xmlns:xlink="http://www.w3.org/1999/xlink">
    <!-- Generator: Sketch 39.1 (31720) - http://www.bohemiancoding.com/sketch -->
    <title>ic_feed_placeholder_text-mdpi</title>
    <desc>Created with Sketch.</desc>
    <defs>
        <path d="M8.34782609,0 L15.6521739,0 L15.6521739,1.04347826 L8.34782609,1.04347826 L8.34782609,0 L8.34782609,0 Z M8.34782609,3.13043478 L14.6086957,3.13043478 L14.6086957,4.17391304 L8.34782609,4.17391304 L8.34782609,3.13043478 L8.34782609,3.13043478 Z M8.34782609,6.26086957 L13.5652174,6.26086957 L13.5652174,7.30434783 L8.34782609,7.30434783 L8.34782609,6.26086957 L8.34782609,6.26086957 Z M0,9.39130435 L15.6521739,9.39130435 L15.6521739,10.4347826 L0,10.4347826 L0,9.39130435 L0,9.39130435 Z M0,12.5217391 L13.5652174,12.5217391 L13.5652174,13.5652174 L0,13.5652174 L0,12.5217391 L0,12.5217391 Z" id="path-1"></path>
    </defs>
    <g id="Page-1" stroke="none" stroke-width="1" fill="none" fill-rule="evenodd">
        <g id="ic_feed_placeholder_text-mdpi">
            <g id="icon_feed_text" transform="translate(3.000000, 3.000000)">
                <path d="M0,2.08785809 C0,0.934765983 0.940828487,0 2.08785809,0 L21.9121461,0 C23.0652313,0 24,0.940828487 24,2.08785809 L24,21.9121461 C24,23.0652313 23.0591687,24 21.9121461,24 L2.08785809,24 C0.934765983,24 0,23.0591687 0,21.9121461 L0,2.08785809 L0,2.08785809 Z" id="Stroke-1" stroke="#DCDCDC" stroke-width="2" stroke-linecap="round" stroke-linejoin="round"></path>
                <g id="Group-5" transform="translate(4.173913, 5.217391)">
                    <mask id="mask-2" fill="white">
                        <use xlink:href="#path-1"></use>
                    </mask>
                    <g id="Clip-4"></g>
                    <polygon id="Fill-3" fill="#D9D9D9" mask="url(#mask-2)" points="-5.2173913 -5.2173913 20.8695652 -5.2173913 20.8695652 18.7826087 -5.2173913 18.7826087"></polygon>
                </g>
                <text id="A" font-family="Helvetica-Oblique, Helvetica" font-size="9" font-style="italic" font-weight="normal" fill="#CCCCCC">
                    <tspan x="4.17391304" y="11.0869565">A</tspan>
                </text>
            </g>
        </g>
    </g>
</svg>