<?xml version="1.0" encoding="UTF-8" standalone="no"?>
<svg width="32px" height="32px" viewBox="0 0 32 32" version="1.1" xmlns="http://www.w3.org/2000/svg" xmlns:xlink="http://www.w3.org/1999/xlink" xmlns:sketch="http://www.bohemiancoding.com/sketch/ns">
    <!-- Generator: Sketch 3.4.3 (16618) - http://www.bohemiancoding.com/sketch -->
    <title>Artboard 1</title>
    <desc>Created with Sketch.</desc>
    <defs></defs>
    <g id="Page-1" stroke="none" stroke-width="1" fill="none" fill-rule="evenodd" sketch:type="MSPage">
        <g id="Artboard-1" sketch:type="MSArtboardGroup" fill="#000000" opacity="0.2">
            <path d="M16,22 L22,22 L22,19 L10,19 L10,22 L12,22 L12,20 L16,20 L16,22 Z M16,24 L22.0059397,24 C23.1054862,24 24,23.1067681 24,22.0049107 L24,7.99508929 C24,6.8926228 23.1072288,6 22.0059397,6 L9.99406028,6 C8.89451376,6 8,6.8932319 8,7.99508929 L8,22.0049107 C8,23.1073772 8.8927712,24 9.99406028,24 L12,24 L12,27 L14,25.25 L16,27 L16,24 Z M22,17 L22,8 L14,8 L14,17 L22,17 Z" id="icon_repo" sketch:type="MSShapeGroup"></path>
        </g>
    </g>
</svg>