<?xml version="1.0" encoding="UTF-8" standalone="no"?>
<svg width="70px" height="70px" viewBox="0 0 70 70" version="1.1" xmlns="http://www.w3.org/2000/svg" xmlns:xlink="http://www.w3.org/1999/xlink">
    <!-- Generator: Sketch 3.6.1 (26313) - http://www.bohemiancoding.com/sketch -->
    <title>ic_pick_source_camera-mdpi</title>
    <desc>Created with Sketch.</desc>
    <defs></defs>
    <g id="Page-1" stroke="none" stroke-width="1" fill="none" fill-rule="evenodd">
        <g id="ic_pick_source_camera-mdpi">
            <rect id="Rectangle-452" fill="#38A6F9" x="0" y="0" width="70" height="70"></rect>
            <g id="icon_add-camera" transform="translate(0.000000, 10.000000)" fill="#FFFFFF">
                <g transform="translate(15.000000, 8.000000)" id="Rectangle-155">
                    <path d="M9.4137931,6 L4.00002553,6 C1.79642476,6 0,7.78666747 0,9.99063349 L0,26.1760332 C0,28.3699825 1.79087243,30.1666667 4.00002553,30.1666667 L35.9999745,30.1666667 C38.2035752,30.1666667 40,28.3799992 40,26.1760332 L40,9.99063349 C40,7.7966842 38.2091276,6 35.9999745,6 L30.1862069,6 L25.2766131,0.726732549 C24.9057897,0.328440799 24.1562199,0 23.6087894,0 L15.9912106,0 C15.4501518,0 14.69707,0.325369245 14.3233869,0.726732549 L9.4137931,6 Z M20,26 C24.418278,26 28,22.418278 28,18 C28,13.581722 24.418278,10 20,10 C15.581722,10 12,13.581722 12,18 C12,22.418278 15.581722,26 20,26 Z M20,24 C23.3137085,24 26,21.3137085 26,18 C26,14.6862915 23.3137085,12 20,12 C16.6862915,12 14,14.6862915 14,18 C14,21.3137085 16.6862915,24 20,24 Z M31.2,10.8581446 C31.2,10.3074982 31.6429687,9.86111111 32.1945631,9.86111111 L35.0054369,9.86111111 C35.5547189,9.86111111 36,10.2994792 36,10.8581446 L36,11.6696332 C36,12.2202796 35.5570312,12.6666667 35.0054369,12.6666667 L32.1945631,12.6666667 C31.6452811,12.6666667 31.2,12.2282986 31.2,11.6696332 L31.2,10.8581446 Z"></path>
                </g>
            </g>
        </g>
    </g>
</svg>