<?xml version="1.0" encoding="UTF-8" standalone="no"?>
<svg width="32px" height="32px" viewBox="0 0 32 32" version="1.1" xmlns="http://www.w3.org/2000/svg" xmlns:xlink="http://www.w3.org/1999/xlink" xmlns:sketch="http://www.bohemiancoding.com/sketch/ns">
    <!-- Generator: Sketch 3.3.2 (12043) - http://www.bohemiancoding.com/sketch -->
    <title>Artboard 1</title>
    <desc>Created with Sketch.</desc>
    <defs></defs>
    <g id="Page-1" stroke="none" stroke-width="1" fill="none" fill-rule="evenodd" sketch:type="MSPage">
        <g id="Artboard-1" sketch:type="MSArtboardGroup" fill="#FFFFFF">
            <path d="M16,18 C17.66,18 18.99,16.66 18.99,15 L19,9 C19,7.34 17.66,6 16,6 C14.34,6 13,7.34 13,9 L13,15 C13,16.66 14.34,18 16,18 L16,18 Z M21.3,15 C21.3,18 18.76,20.1 16,20.1 C13.24,20.1 10.7,18 10.7,15 L9,15 C9,18.41 11.72,21.23 15,21.72 L15,25 L17,25 L17,21.72 C20.28,21.24 23,18.42 23,15 L21.3,15 L21.3,15 Z" id="Shape" sketch:type="MSShapeGroup"></path>
        </g>
    </g>
</svg>