<?xml version="1.0" encoding="UTF-8" standalone="no"?>
<svg width="32px" height="24px" viewBox="0 0 32 24" version="1.1" xmlns="http://www.w3.org/2000/svg" xmlns:xlink="http://www.w3.org/1999/xlink" xmlns:sketch="http://www.bohemiancoding.com/sketch/ns">
    <!-- Generator: Sketch 3.3.3 (12081) - http://www.bohemiancoding.com/sketch -->
    <title>Artboard 1</title>
    <desc>Created with Sketch.</desc>
    <defs></defs>
    <g id="Page-1" stroke="none" stroke-width="1" fill="none" fill-rule="evenodd" sketch:type="MSPage">
        <g id="Artboard-1" sketch:type="MSArtboardGroup" fill="#38A6F9">
            <path d="M27.6520845,9.57353459 C26.5806763,5.5022588 22.8765675,2.5 18.4642628,2.5 L10.4646694,2.5 C5.21785198,2.5 0.964466094,6.75214127 0.964466094,12 C0.964466094,17.2467051 5.21291775,21.5 10.4646694,21.5 L18.4642628,21.5 C22.8724943,21.5 26.5794727,18.498457 27.6518195,14.4266554 L31.0355339,12 L27.6520845,9.57353459 Z M15.9644661,11.4989566 C15.9644661,10.9472481 15.5218058,10.5 14.9655095,10.5 L13.9634227,10.5 C13.4117142,10.5 12.9644661,10.9426603 12.9644661,11.4989566 L12.9644661,12.5010434 C12.9644661,13.0527519 13.4071264,13.5 13.9634227,13.5 L14.9655095,13.5 C15.517218,13.5 15.9644661,13.0573397 15.9644661,12.5010434 L15.9644661,11.4989566 Z M21.9644661,11.4989566 C21.9644661,10.9472481 21.5218058,10.5 20.9655095,10.5 L19.9634227,10.5 C19.4117142,10.5 18.9644661,10.9426603 18.9644661,11.4989566 L18.9644661,12.5010434 C18.9644661,13.0527519 19.4071264,13.5 19.9634227,13.5 L20.9655095,13.5 C21.517218,13.5 21.9644661,13.0573397 21.9644661,12.5010434 L21.9644661,11.4989566 Z M9.96446609,11.4989566 C9.96446609,10.9472481 9.52180576,10.5 8.96550953,10.5 L7.96342266,10.5 C7.41171418,10.5 6.96446609,10.9426603 6.96446609,11.4989566 L6.96446609,12.5010434 C6.96446609,13.0527519 7.40712643,13.5 7.96342266,13.5 L8.96550953,13.5 C9.51721801,13.5 9.96446609,13.0573397 9.96446609,12.5010434 L9.96446609,11.4989566 Z" id="icon" sketch:type="MSShapeGroup"></path>
        </g>
    </g>
</svg>