<?xml version="1.0" encoding="UTF-8" standalone="no"?>
<svg width="30px" height="30px" viewBox="0 0 30 30" version="1.1" xmlns="http://www.w3.org/2000/svg" xmlns:xlink="http://www.w3.org/1999/xlink" xmlns:sketch="http://www.bohemiancoding.com/sketch/ns">
    <!-- Generator: Sketch 3.4.4 (17249) - http://www.bohemiancoding.com/sketch -->
    <title>icon_pin</title>
    <desc>Created with Sketch.</desc>
    <defs></defs>
    <g id="Misc" stroke="none" stroke-width="1" fill="none" fill-rule="evenodd" sketch:type="MSPage">
        <g id="Location-Picker" sketch:type="MSArtboardGroup" transform="translate(-9.000000, -527.000000)" fill="#FF2851">
            <g id="Nearby-Locations" sketch:type="MSLayerGroup" transform="translate(-6.000000, 453.000000)">
                <g id="location" transform="translate(0.000000, 50.000000)" sketch:type="MSShapeGroup">
                    <g id="icon_pin" transform="translate(15.000000, 24.000000)">
                        <path d="M8.63603897,20.363961 C5.12132034,16.8492424 5.12132034,11.1507576 8.63603897,7.63603897 C12.1507576,4.12132034 17.8492424,4.12132034 21.363961,7.63603897 C24.8786797,11.1507576 24.8786797,16.8492424 21.363961,20.363961 L15,26.7279221 L8.63603897,20.363961 L8.63603897,20.363961 L8.63603897,20.363961 Z M12.8786797,16.1213203 C14.0502525,17.2928932 15.9497475,17.2928932 17.1213203,16.1213203 C18.2928932,14.9497475 18.2928932,13.0502525 17.1213203,11.8786797 C15.9497475,10.7071068 14.0502525,10.7071068 12.8786797,11.8786797 C11.7071068,13.0502525 11.7071068,14.9497475 12.8786797,16.1213203 L12.8786797,16.1213203 Z"></path>
                    </g>
                </g>
            </g>
        </g>
    </g>
</svg>