<?xml version="1.0" encoding="UTF-8" standalone="no"?>
<svg width="16px" height="24px" viewBox="0 0 16 24" version="1.1" xmlns="http://www.w3.org/2000/svg" xmlns:xlink="http://www.w3.org/1999/xlink" xmlns:sketch="http://www.bohemiancoding.com/sketch/ns">
    <!-- Generator: Sketch 3.3.1 (12005) - http://www.bohemiancoding.com/sketch -->
    <title>Artboard 1</title>
    <desc>Created with Sketch.</desc>
    <defs></defs>
    <g id="Page-1" stroke="none" stroke-width="1" fill="none" fill-rule="evenodd" sketch:type="MSPage">
        <g id="Artboard-1" sketch:type="MSArtboardGroup" fill="#FFFFFF">
            <path d="M8,8 C9.1,8 10,7.1 10,6 C10,4.9 9.1,4 8,4 C6.9,4 6,4.9 6,6 C6,7.1 6.9,8 8,8 L8,8 Z M8,10 C6.9,10 6,10.9 6,12 C6,13.1 6.9,14 8,14 C9.1,14 10,13.1 10,12 C10,10.9 9.1,10 8,10 L8,10 Z M8,16 C6.9,16 6,16.9 6,18 C6,19.1 6.9,20 8,20 C9.1,20 10,19.1 10,18 C10,16.9 9.1,16 8,16 L8,16 Z" id="Shape" sketch:type="MSShapeGroup"></path>
        </g>
    </g>
</svg>