<?xml version="1.0" encoding="UTF-8" standalone="no"?>
<svg width="24px" height="24px" viewBox="0 0 24 24" version="1.1" xmlns="http://www.w3.org/2000/svg" xmlns:xlink="http://www.w3.org/1999/xlink" xmlns:sketch="http://www.bohemiancoding.com/sketch/ns">
    <!-- Generator: Sketch 3.3.2 (12043) - http://www.bohemiancoding.com/sketch -->
    <title>Artboard 2</title>
    <desc>Created with Sketch.</desc>
    <defs></defs>
    <g id="Page-1" stroke="none" stroke-width="1" fill="none" fill-rule="evenodd" sketch:type="MSPage">
        <g id="Artboard-2" sketch:type="MSArtboardGroup" fill="#FFFFFF">
            <path d="M12,24 C18.627417,24 24,18.627417 24,12 C24,5.372583 18.627417,0 12,0 C5.372583,0 0,5.372583 0,12 C0,18.627417 5.372583,24 12,24 Z M16,2.5625 C15.5625,5.07291667 14.8333333,7.66666667 13.8125,10.34375 L13.78125,10.34375 L13.75,10.328125 C13.5833333,10.265625 13.359375,10.1796875 13.078125,10.0703125 C12.796875,9.9609375 12.2708333,9.70572917 11.5,9.3046875 C10.7291667,8.90364583 10.015625,8.4765625 9.359375,8.0234375 C8.703125,7.5703125 8.02083333,6.97395833 7.3125,6.234375 C6.60416667,5.49479167 6.06770833,4.72395833 5.703125,3.921875 L5.46875,4.09375 C7.38541667,2.53125 9.5625,1.75 12,1.75 C13.375,1.75 14.7083333,2.02083333 16,2.5625 Z M13.109375,12.046875 C12.890625,12.5572917 12.6145833,13.1354167 12.28125,13.78125 C9.04166667,12.8125 5.53645833,12.328125 1.765625,12.328125 C1.75520833,12.2552083 1.75,12.1458333 1.75,12 C1.75,10.7083333 1.97916667,9.4765625 2.4375,8.3046875 C2.89583333,7.1328125 3.54166667,6.08333333 4.375,5.15625 C4.89583333,6.08333333 5.5390625,6.95052083 6.3046875,7.7578125 C7.0703125,8.56510417 7.8125,9.21354167 8.53125,9.703125 C9.25,10.1927083 9.9296875,10.6145833 10.5703125,10.96875 C11.2109375,11.3229167 11.7291667,11.5729167 12.125,11.71875 L12.703125,11.921875 C12.7447917,11.9322917 12.8125,11.9505208 12.90625,11.9765625 C13,12.0026042 13.0677083,12.0260417 13.109375,12.046875 Z M11.4375,15.359375 C10.1875,17.578125 8.91666667,19.546875 7.625,21.265625 C6.1875,20.5885417 4.96875,19.6197917 3.96875,18.359375 C2.96875,17.0989583 2.30208333,15.6822917 1.96875,14.109375 C5.11458333,14.109375 8.27083333,14.5260417 11.4375,15.359375 Z M22.125,10.375 C19.9375,11 17.8072917,11.1510417 15.734375,10.828125 C16.640625,8.33854167 17.3072917,5.89583333 17.734375,3.5 C18.890625,4.28125 19.8541667,5.26822917 20.625,6.4609375 C21.3958333,7.65364583 21.8958333,8.95833333 22.125,10.375 Z M9.615625,22.0375 C9.58229167,22.0375 9.54895833,22.0041667 9.515625,21.9375 C9.54895833,22.0041667 9.58229167,22.0375 9.615625,22.0375 Z M18.765625,19.6875 C16.8385417,21.3958333 14.5833333,22.25 12,22.25 C11.2083333,22.25 10.4010417,22.1510417 9.578125,21.953125 C10.9427083,20.1822917 12.2239583,18.1927083 13.421875,15.984375 C14.140625,16.2552083 14.8177083,16.5703125 15.453125,16.9296875 C16.0885417,17.2890625 16.5911458,17.609375 16.9609375,17.890625 C17.3307292,18.171875 17.671875,18.46875 17.984375,18.78125 C18.296875,19.09375 18.4921875,19.3046875 18.5703125,19.4140625 L18.765625,19.6875 Z M22.25,12.109375 C22.21875,14.5260417 21.4427083,16.6614583 19.921875,18.515625 L19.90625,18.5 C19.8125,18.375 19.7135417,18.2473958 19.609375,18.1171875 C19.5052083,17.9869792 19.2786458,17.7552083 18.9296875,17.421875 C18.5807292,17.0885417 18.2109375,16.7734375 17.8203125,16.4765625 C17.4296875,16.1796875 16.9088542,15.8411458 16.2578125,15.4609375 C15.6067708,15.0807292 14.921875,14.7447917 14.203125,14.453125 C14.4635417,13.9010417 14.6927083,13.40625 14.890625,12.96875 C14.9114583,12.90625 14.9453125,12.8151042 14.9921875,12.6953125 C15.0390625,12.5755208 15.078125,12.4895833 15.109375,12.4375 C15.484375,12.4895833 15.8723958,12.5260417 16.2734375,12.546875 C16.6744792,12.5677083 17.0572917,12.578125 17.421875,12.578125 C17.7864583,12.578125 18.1458333,12.5703125 18.5,12.5546875 C18.8541667,12.5390625 19.1875,12.5182292 19.5,12.4921875 C19.8125,12.4661458 20.1067708,12.4375 20.3828125,12.40625 C20.6588542,12.375 20.9088542,12.3411458 21.1328125,12.3046875 C21.3567708,12.2682292 21.546875,12.2369792 21.703125,12.2109375 C21.859375,12.1848958 21.9895833,12.1614583 22.09375,12.140625 L22.25,12.109375 Z" id="icon_dribbble" sketch:type="MSShapeGroup" transform="translate(12.000000, 12.000000) scale(1, -1) translate(-12.000000, -12.000000) "></path>
        </g>
    </g>
</svg>