<?xml version="1.0" encoding="UTF-8" standalone="no"?>
<svg width="24px" height="24px" viewBox="0 0 24 24" version="1.1" xmlns="http://www.w3.org/2000/svg" xmlns:xlink="http://www.w3.org/1999/xlink" xmlns:sketch="http://www.bohemiancoding.com/sketch/ns">
    <!-- Generator: Sketch 3.3.2 (12043) - http://www.bohemiancoding.com/sketch -->
    <title>Artboard 1</title>
    <desc>Created with Sketch.</desc>
    <defs></defs>
    <g id="Page-1" stroke="none" stroke-width="1" fill="none" fill-rule="evenodd" sketch:type="MSPage">
        <g id="Artboard-1" sketch:type="MSArtboardGroup" fill="#FFFFFF">
            <path d="M11.9992498,0 C5.37284321,0 -1.42108547e-13,5.50850649 -1.42108547e-13,12.3037669 C-1.42108547e-13,17.7392061 3.43735934,22.3509074 8.20705176,23.9783857 C8.8072018,24.0906786 8.99624906,23.7261112 8.99624906,23.4000002 C8.99624906,23.107731 9.00225056,22.2909153 8.99624906,21.2641272 C5.65866467,22.0078756 4.96699175,19.643571 4.96699175,19.643571 C4.4216054,18.2222195 3.63540885,17.8438077 3.63540885,17.8438077 C2.54613653,17.0808311 3.71717929,17.0954445 3.71717929,17.0954445 C4.92123031,17.1823562 5.55588897,18.3637393 5.55588897,18.3637393 C6.6264066,20.242723 8.36384096,19.6997175 9.04726182,19.3859126 C9.1567892,18.5906326 9.46736684,18.0483962 9.81020255,17.7407443 C7.14553638,17.4300159 4.34433608,16.3747701 4.34433608,11.6600054 C4.34433608,10.3163359 4.81170293,9.21878788 5.57914479,8.35890094 C5.45536384,8.04817257 5.04276069,6.79679864 5.69692423,5.10240604 C5.69692423,5.10240604 6.70442611,4.7716803 8.99624906,6.36454778 C9.95348837,6.09150676 10.9804951,5.95537081 12.0007502,5.95075604 C13.0202551,5.95537081 14.0465116,6.09150676 15.0052513,6.36454778 C17.2970743,4.77244943 18.3030758,5.10240604 18.3030758,5.10240604 C18.9572393,6.79679864 18.5453863,8.04817257 18.4223556,8.35890094 C19.1897974,9.21878788 19.6556639,10.3163359 19.6556639,11.6600054 C19.6556639,16.3870761 16.8499625,17.4269394 14.1762941,17.7307456 C14.6069017,18.1114648 14.9977494,18.8498293 14.9977494,19.9973707 L14.9977494,23.4030767 C14.9977494,23.7322642 15.1912978,24.0960625 15.8004501,23.9768474 C20.5656414,22.3470617 24,17.7376678 24,12.3037669 C24,5.50850649 18.6271568,0 11.9992498,0 L11.9992498,0 Z" id="icon_github" sketch:type="MSShapeGroup"></path>
        </g>
    </g>
</svg>