<?xml version="1.0" encoding="UTF-8" standalone="no"?>
<svg width="24px" height="24px" viewBox="0 0 24 24" version="1.1" xmlns="http://www.w3.org/2000/svg" xmlns:xlink="http://www.w3.org/1999/xlink" xmlns:sketch="http://www.bohemiancoding.com/sketch/ns">
    <!-- Generator: Sketch 3.3.2 (12043) - http://www.bohemiancoding.com/sketch -->
    <title>Artboard 1</title>
    <desc>Created with Sketch.</desc>
    <defs></defs>
    <g id="Page-1" stroke="none" stroke-width="1" fill="none" fill-rule="evenodd" sketch:type="MSPage">
        <g id="Artboard-1" sketch:type="MSArtboardGroup" fill="#FFFFFF">
            <path d="M3.8237582,0.5 L20.1762418,0.5 C21.7293979,0.5 23,1.82834324 23,3.45208095 L23,20.5479191 C23,22.1716568 21.7293979,23.5 20.1762418,23.5 L3.8237582,23.5 C2.27060206,23.5 1,22.1716568 1,20.5479191 L1,3.45184799 C0.999777166,1.82834324 2.27060206,0.5 3.8237582,0.5 L3.8237582,0.5 L3.8237582,0.5 Z M17.0260311,3.05534848 C16.4812009,3.05534848 16.0357548,3.52127035 16.0357548,4.09085983 L16.0357548,6.5693312 C16.0357548,7.13892068 16.4812009,7.60484255 17.0260311,7.60484255 L19.5126408,7.60484255 C20.0572482,7.60484255 20.5029171,7.13892068 20.5029171,6.5693312 L20.5029171,4.09085983 C20.5029171,3.52127035 20.0572482,3.05534848 19.5126408,3.05534848 L17.0260311,3.05534848 L17.0260311,3.05534848 L17.0260311,3.05534848 Z M20.5136132,10.2263519 L18.5771818,10.2263519 C18.7603517,10.851852 18.859513,11.513927 18.859513,12.199764 C18.859513,16.0254484 15.7977676,19.1266244 12.0211693,19.1266244 C8.24457094,19.1266244 5.18304838,16.0254484 5.18304838,12.199764 C5.18304838,11.513927 5.28198687,10.851852 5.46515679,10.2263519 L3.4447168,10.2263519 L3.4447168,19.9419877 C3.4447168,20.4449503 3.83824244,20.8563593 4.31934203,20.8563593 L19.6394336,20.8563593 C20.1203103,20.8563593 20.5140588,20.4449503 20.5140588,19.9419877 L20.5140588,10.2263519 L20.5136132,10.2263519 L20.5136132,10.2263519 Z M12.0207236,7.47415147 C9.58068633,7.47415147 7.60236205,9.47808141 7.60236205,11.9497969 C7.60236205,14.4217454 9.58068633,16.4256753 12.0207236,16.4256753 C14.4609837,16.4256753 16.439308,14.4217454 16.439308,11.9497969 C16.439308,9.47808141 14.4609837,7.47415147 12.0207236,7.47415147 L12.0207236,7.47415147 Z" id="icon_instagram" sketch:type="MSShapeGroup"></path>
        </g>
    </g>
</svg>