<?xml version="1.0" encoding="UTF-8" standalone="no"?>
<svg width="24px" height="24px" viewBox="0 0 24 24" version="1.1" xmlns="http://www.w3.org/2000/svg" xmlns:xlink="http://www.w3.org/1999/xlink" xmlns:sketch="http://www.bohemiancoding.com/sketch/ns">
    <!-- Generator: Sketch 3.3.2 (12043) - http://www.bohemiancoding.com/sketch -->
    <title>Artboard 1</title>
    <desc>Created with Sketch.</desc>
    <defs></defs>
    <g id="Page-1" stroke="none" stroke-width="1" fill="none" fill-rule="evenodd" sketch:type="MSPage">
        <g id="Artboard-1" sketch:type="MSArtboardGroup" fill="#FFFFFF">
            <path d="M11.9992498,0 C5.37284321,0 -1.42108547e-13,5.2789854 -1.42108547e-13,11.79111 C-1.42108547e-13,17.0000725 3.43735934,21.4196196 8.20705176,22.9792863 C8.8072018,23.0869004 8.99624906,22.7375233 8.99624906,22.4250002 C8.99624906,22.1449089 9.00225056,21.3621272 8.99624906,20.3781219 C5.65866467,21.0908808 4.96699175,18.8250889 4.96699175,18.8250889 C4.4216054,17.4629604 3.63540885,17.1003157 3.63540885,17.1003157 C2.54613653,16.3691298 3.71717929,16.3831343 3.71717929,16.3831343 C4.92123031,16.4664247 5.55588897,17.5985835 5.55588897,17.5985835 C6.6264066,19.3992762 8.36384096,18.878896 9.04726182,18.5781663 C9.1567892,17.8160229 9.46736684,17.2963797 9.81020255,17.0015467 C7.14553638,16.7037653 4.34433608,15.692488 4.34433608,11.1741719 C4.34433608,9.88648859 4.81170293,8.83467173 5.57914479,8.01061342 C5.45536384,7.71283206 5.04276069,6.51359871 5.69692423,4.8898058 C5.69692423,4.8898058 6.70442611,4.5728603 8.99624906,6.0993583 C9.95348837,5.83769399 10.9804951,5.70723037 12.0007502,5.70280788 C13.0202551,5.70723037 14.0465116,5.83769399 15.0052513,6.0993583 C17.2970743,4.57359738 18.3030758,4.8898058 18.3030758,4.8898058 C18.9572393,6.51359871 18.5453863,7.71283206 18.4223556,8.01061342 C19.1897974,8.83467173 19.6556639,9.88648859 19.6556639,11.1741719 C19.6556639,15.7042813 16.8499625,16.700817 14.1762941,16.9919646 C14.6069017,17.3568205 14.9977494,18.0644198 14.9977494,19.164147 L14.9977494,22.4279485 C14.9977494,22.7434199 15.1912978,23.0920599 15.8004501,22.9778121 C20.5656414,21.4159342 24,16.9985983 24,11.79111 C24,5.2789854 18.6271568,0 11.9992498,0 L11.9992498,0 L11.9992498,0 Z" id="icon_github" sketch:type="MSShapeGroup"></path>
        </g>
    </g>
</svg>